<svg xmlns="http://www.w3.org/2000/svg" width="1600" height="960" viewBox="0 0 1600 960">
<defs>
  <linearGradient id="bg" x1="0" y1="0" x2="1" y2="1"><stop stop-color="#05080b"/><stop offset=".55" stop-color="#0b1117"/><stop offset="1" stop-color="#06090c"/></linearGradient>
  <linearGradient id="red" x1="0" y1="0" x2="1" y2="1"><stop stop-color="#ff2238"/><stop offset=".55" stop-color="#d00022"/><stop offset="1" stop-color="#760014"/></linearGradient>
  <linearGradient id="hero" x1="0" y1="0" x2="1" y2="1"><stop stop-color="#06101a"/><stop offset=".55" stop-color="#10151c"/><stop offset="1" stop-color="#431411"/></linearGradient>
  <linearGradient id="car1" x1="0" y1="0" x2="1" y2="1"><stop stop-color="#ff3347"/><stop offset=".5" stop-color="#a60918"/><stop offset="1" stop-color="#310309"/></linearGradient>
  <linearGradient id="car2" x1="0" y1="0" x2="1" y2="1"><stop stop-color="#858b92"/><stop offset=".5" stop-color="#252a31"/><stop offset="1" stop-color="#080b0e"/></linearGradient>
  <filter id="shadow"><feDropShadow dx="0" dy="14" stdDeviation="12" flood-color="#000" flood-opacity=".75"/></filter>
</defs>
<rect width="1600" height="960" rx="20" fill="url(#bg)"/>
<rect x="0" y="0" width="288" height="960" fill="#071016"/>
<rect x="288" y="0" width="1312" height="48" fill="#091119"/>
<text x="30" y="90" fill="#f4f5f7" font-family="Segoe UI,Arial" font-size="54" font-weight="800">AR<tspan fill="#e30027">X</tspan></text>
<text x="32" y="124" fill="#f4f5f7" font-family="Segoe UI,Arial" font-size="24" font-weight="700">AlfaRaceX Updater</text>
<text x="32" y="151" fill="#7e8d9c" font-family="Segoe UI,Arial" font-size="16">v0.4.0</text>
<g font-family="Segoe UI,Arial" font-size="20" font-weight="700">
  <rect x="0" y="190" width="288" height="68" fill="#3a0911"/><rect x="0" y="190" width="5" height="68" fill="#e40027"/>
  <text x="38" y="231" fill="#fff">⌂  Dashboard</text>
  <text x="38" y="300" fill="#d4dbe2">↓  Aggiornamento</text>
  <text x="38" y="369" fill="#d4dbe2">≡  Log operazioni</text>
  <text x="38" y="438" fill="#d4dbe2">⚙  Impostazioni</text>
  <text x="38" y="507" fill="#d4dbe2">ⓘ  Informazioni</text>
</g>
<rect x="306" y="66" width="546" height="218" rx="12" fill="#0d151c" stroke="#2c3a46"/>
<circle cx="340" cy="98" r="10" fill="#20e17c"/><text x="365" y="106" fill="#20e17c" font-family="Segoe UI,Arial" font-size="26" font-weight="800">Updater pronto</text>
<text x="365" y="137" fill="#8c9cac" font-family="Segoe UI,Arial" font-size="16">Verifica la release disponibile e prepara i tre moduli AlfaRaceX.</text>
<g font-family="Segoe UI,Arial" font-size="16">
  <text x="330" y="182" fill="#8291a0">Versione updater</text><text x="530" y="182" fill="#f4f6f8" font-weight="700">0.4.0</text>
  <text x="330" y="211" fill="#8291a0">Firmware disponibile</text><text x="530" y="211" fill="#f4f6f8" font-weight="700">1.0.0-rc5</text>
  <text x="330" y="240" fill="#8291a0">Canale</text><text x="530" y="240" fill="#f4f6f8">Release Candidate</text>
  <text x="330" y="269" fill="#8291a0">Ultima verifica</text><text x="530" y="269" fill="#f4f6f8">dati runtime</text>
</g>
<rect x="872" y="66" width="690" height="218" rx="12" fill="url(#hero)" stroke="#2c3a46"/>
<path d="M872 215 L1010 130 1090 195 1185 86 1270 178 1370 108 1460 190 1562 120 1562 284 872 284Z" fill="#090d12"/>
<g transform="translate(1090 118) scale(.63)" filter="url(#shadow)">
  <path d="M30 175 C75 110 145 86 236 80 L395 77 C469 78 527 103 566 152 L610 181 598 232 25 232 14 201Z" fill="url(#car1)" stroke="#ee5661" stroke-width="3"/>
  <path d="M183 94 L386 90 C439 91 486 109 518 139 L151 139 C160 121 169 106 183 94Z" fill="#0c151e"/>
  <path d="M73 158 C109 145 144 145 185 151 L169 178 62 185Z" fill="#edf9ff"/>
  <path d="M480 151 C518 149 548 160 568 175 L552 190 478 180Z" fill="#edf9ff"/>
  <circle cx="129" cy="226" r="44" fill="#07090c" stroke="#414850" stroke-width="7"/>
  <circle cx="509" cy="226" r="44" fill="#07090c" stroke="#414850" stroke-width="7"/>
</g>
<g transform="translate(915 176) scale(.43)" filter="url(#shadow)">
  <path d="M30 175 C75 110 145 86 236 80 L395 77 C469 78 527 103 566 152 L610 181 598 232 25 232 14 201Z" fill="url(#car2)" stroke="#88919b" stroke-width="3"/>
  <path d="M183 94 L386 90 C439 91 486 109 518 139 L151 139 C160 121 169 106 183 94Z" fill="#0c151e"/>
  <path d="M73 158 C109 145 144 145 185 151 L169 178 62 185Z" fill="#edf9ff"/>
  <path d="M480 151 C518 149 548 160 568 175 L552 190 478 180Z" fill="#edf9ff"/>
  <circle cx="129" cy="226" r="44" fill="#07090c" stroke="#414850" stroke-width="7"/>
  <circle cx="509" cy="226" r="44" fill="#07090c" stroke="#414850" stroke-width="7"/>
</g>
<text x="896" y="94" fill="#fff" font-family="Segoe UI,Arial" font-size="18" font-weight="800">ALFARACEX</text>
<text x="896" y="118" fill="#aab5bf" font-family="Segoe UI,Arial" font-size="13">PERFORMANCE · DIAGNOSTICS · CONTROL</text>
<g font-family="Segoe UI,Arial" font-size="18" font-weight="800">
  <rect x="306" y="304" width="370" height="62" rx="9" fill="#101921" stroke="#31404d"/><text x="395" y="343" fill="#f5f7f9">↻  VERIFICA AGGIORNAMENTI</text>
  <rect x="690" y="304" width="406" height="62" rx="9" fill="#101921" stroke="#31404d"/><text x="767" y="343" fill="#f5f7f9">↓  SCARICA E VERIFICA FIRMWARE</text>
  <rect x="1110" y="304" width="452" height="62" rx="9" fill="url(#red)" stroke="#ff5a6b"/><text x="1210" y="343" fill="#fff">⚙  INSTALLA AGGIORNAMENTO</text>
</g>
<rect x="306" y="386" width="1256" height="242" rx="12" fill="#0c141b" stroke="#2c3a46"/>
<text x="328" y="420" fill="#f3f6f8" font-family="Segoe UI,Arial" font-size="22" font-weight="800">Moduli firmware</text>
<text x="328" y="446" fill="#8494a3" font-family="Segoe UI,Arial" font-size="14">Versione disponibile, checksum e stato operativo dei controller.</text>
<g font-family="Segoe UI,Arial">
  <rect x="328" y="470" width="1210" height="44" fill="#081016"/><rect x="340" y="476" width="110" height="32" rx="6" fill="#db082a"/><text x="378" y="499" fill="#fff" font-size="18" font-weight="800">BH</text><text x="474" y="499" fill="#fff" font-size="15">Modulo BH</text><text x="680" y="499" fill="#fff" font-size="15">Disponibile: 1.0.0-rc5</text><text x="970" y="499" fill="#91a0ae" font-size="15">SHA-256 verificato</text><circle cx="1265" cy="492" r="7" fill="#20df7a"/><text x="1285" y="499" fill="#20df7a" font-size="15" font-weight="700">Pronto</text>
  <rect x="328" y="520" width="1210" height="44" fill="#0b131a"/><rect x="340" y="526" width="110" height="32" rx="6" fill="#158ed0"/><text x="378" y="549" fill="#fff" font-size="18" font-weight="800">C2</text><text x="474" y="549" fill="#fff" font-size="15">Modulo C2</text><text x="680" y="549" fill="#fff" font-size="15">Disponibile: 1.0.0-rc5</text><text x="970" y="549" fill="#91a0ae" font-size="15">SHA-256 verificato</text><circle cx="1265" cy="542" r="7" fill="#20df7a"/><text x="1285" y="549" fill="#20df7a" font-size="15" font-weight="700">Pronto</text>
  <rect x="328" y="570" width="1210" height="44" fill="#081016"/><rect x="340" y="576" width="110" height="32" rx="6" fill="#10ad60"/><text x="378" y="599" fill="#fff" font-size="18" font-weight="800">C1</text><text x="474" y="599" fill="#fff" font-size="15">Modulo C1</text><text x="680" y="599" fill="#fff" font-size="15">Disponibile: 1.0.0-rc5</text><text x="970" y="599" fill="#91a0ae" font-size="15">SHA-256 verificato</text><circle cx="1265" cy="592" r="7" fill="#20df7a"/><text x="1285" y="599" fill="#20df7a" font-size="15" font-weight="700">Pronto</text>
</g>
<rect x="306" y="646" width="1256" height="116" rx="12" fill="#0c141b" stroke="#2c3a46"/>
<text x="328" y="679" fill="#f3f6f8" font-family="Segoe UI,Arial" font-size="19" font-weight="800">Avanzamento operazione</text>
<line x1="390" y1="718" x2="1450" y2="718" stroke="#33424f" stroke-width="4"/>
<line x1="390" y1="718" x2="655" y2="718" stroke="#e00027" stroke-width="4"/>
<g font-family="Segoe UI,Arial" font-size="13" text-anchor="middle">
  <g><circle cx="390" cy="718" r="18" fill="#e00027"/><text x="390" y="723" fill="#fff">1</text><text x="390" y="751" fill="#fff">Verifica</text></g>
  <g><circle cx="655" cy="718" r="18" fill="#1c2730" stroke="#768694"/><text x="655" y="723" fill="#fff">2</text><text x="655" y="751" fill="#8fa0ae">Download</text></g>
  <g><circle cx="920" cy="718" r="18" fill="#1c2730" stroke="#768694"/><text x="920" y="723" fill="#fff">3</text><text x="920" y="751" fill="#8fa0ae">Preparazione</text></g>
  <g><circle cx="1185" cy="718" r="18" fill="#1c2730" stroke="#768694"/><text x="1185" y="723" fill="#fff">4</text><text x="1185" y="751" fill="#8fa0ae">Installazione</text></g>
  <g><circle cx="1450" cy="718" r="18" fill="#1c2730" stroke="#768694"/><text x="1450" y="723" fill="#fff">5</text><text x="1450" y="751" fill="#8fa0ae">Verifica finale</text></g>
</g>
<rect x="306" y="780" width="1256" height="150" rx="12" fill="#071016" stroke="#2c3a46"/>
<text x="328" y="813" fill="#f3f6f8" font-family="Segoe UI,Arial" font-size="19" font-weight="800">Log operazioni</text>
<g font-family="Consolas,monospace" font-size="14">
  <text x="330" y="847" fill="#7f93a4">15:11:02</text><text x="455" y="847" fill="#20df7a">INFO</text><text x="535" y="847" fill="#d6dee5">AlfaRaceX Updater avviato</text>
  <text x="330" y="873" fill="#7f93a4">15:11:04</text><text x="455" y="873" fill="#20df7a">INFO</text><text x="535" y="873" fill="#d6dee5">Manifest firmware verificato</text>
  <text x="330" y="899" fill="#7f93a4">15:11:06</text><text x="455" y="899" fill="#20df7a">INFO</text><text x="535" y="899" fill="#d6dee5">Firmware pronto per download e installazione</text>
</g>
</svg>